<?xml version="1.0" encoding="UTF-8"?>
<svg version="1.1" xmlns="http://www.w3.org/2000/svg" width="940" height="942">
<path d="M0 0 C310.2 0 620.4 0 940 0 C940 310.86 940 621.72 940 942 C629.8 942 319.6 942 0 942 C0 631.14 0 320.28 0 0 Z " fill="#FEF1F0" transform="translate(0,0)"/>
<path d="M0 0 C1.64240662 -0.00832352 1.64240662 -0.00832352 3.31799316 -0.01681519 C6.94852108 -0.02865067 10.57781059 -0.0042749 14.20825195 0.02148438 C16.74013716 0.02319606 19.27202414 0.02312921 21.8039093 0.0213623 C27.12287601 0.02301836 32.44141228 0.04116891 37.76025391 0.07324219 C43.86652368 0.10989041 49.97232484 0.11895209 56.07869023 0.11194468 C61.98617206 0.10557736 67.89349298 0.11673985 73.80094337 0.13591003 C76.29607181 0.14288576 78.79121411 0.14607125 81.28635216 0.1452179 C104.53659268 0.15728668 128.77507201 0.8546719 146.7590332 17.61523438 C155.62069503 26.9488607 160.7054249 38.21947026 165.3840332 50.05273438 C165.96721954 51.50089273 166.55166284 52.94854537 167.13720703 54.39575195 C168.44858226 57.64063514 169.75368639 60.88795631 171.05541992 64.13671875 C173.47529025 70.16553956 175.93043591 76.17979976 178.38793945 82.19335938 C188.18722102 106.17864416 197.96773626 130.17228095 207.63671875 154.21044922 C208.40660172 156.12404564 209.17653893 158.03762024 209.9465332 159.95117188 C210.31780838 160.8740097 210.68908356 161.79684753 211.0716095 162.74765015 C213.02178505 167.58422434 214.99740947 172.40833157 217.01730347 177.21620178 C230.59407404 209.53327545 241.01968841 243.11562721 251.2590332 276.61523438 C253.56219351 273.16049392 254.72980748 269.64902613 256.0090332 265.74023438 C256.40372803 264.54527344 256.40372803 264.54527344 256.80639648 263.32617188 C258.71836431 257.4593117 260.46114227 251.55413921 262.1340332 245.61523438 C271.95812393 210.82010295 284.6863735 177.33594841 297.75247192 143.66482544 C302.2159323 132.15744271 306.64371997 120.63636947 311.0715332 109.11523438 C312.33068161 105.83958015 313.58988541 102.56394722 314.84909058 99.28831482 C315.69656335 97.08370996 316.54399568 94.87908955 317.39138794 92.67445374 C320.45403036 84.7070919 323.52000857 76.74101829 326.5871582 68.77539062 C327.90199593 65.36002609 329.21675057 61.9446296 330.53143311 58.52920532 C331.38603209 56.30909569 332.24072648 54.08902277 333.09552002 51.86898804 C337.06077774 41.56902698 341.02392589 31.26855605 344.9230957 20.94335938 C345.19063156 20.23521591 345.45816742 19.52707245 345.73381042 18.79747009 C346.92005536 15.65515382 348.10222881 12.51143337 349.27880859 9.36547852 C349.86263306 7.81268188 349.86263306 7.81268188 350.45825195 6.22851562 C350.78656006 5.34977783 351.11486816 4.47104004 351.453125 3.56567383 C352.2590332 1.61523438 352.2590332 1.61523438 353.2590332 0.61523438 C355.07760265 0.49694473 356.90076381 0.44888958 358.72305298 0.4276886 C359.9091214 0.41186234 361.09518982 0.39603607 362.31719971 0.37973022 C363.63041199 0.36761505 364.94362427 0.35549988 366.29663086 0.34301758 C367.68442117 0.32693963 369.07220801 0.31055989 370.45999146 0.29389954 C383.14677215 0.14906998 395.83454452 0.07412015 408.52198219 0.01498127 C417.90197244 -0.02958198 427.28049951 -0.10668642 436.65983546 -0.22660321 C443.25266475 -0.30805326 449.84509349 -0.3511636 456.43840444 -0.36632091 C460.37695653 -0.37648381 464.31366768 -0.40374076 468.25166702 -0.47263145 C471.96073004 -0.53679891 475.66702905 -0.55340189 479.37656784 -0.53413582 C481.38058743 -0.53583403 483.38437436 -0.58713636 485.38769531 -0.64007568 C494.02581414 -0.53099008 494.02581414 -0.53099008 497.58375168 2.77596092 C499.39674625 5.31945612 500.86399599 7.82417949 502.2590332 10.61523438 C502.67918512 11.35206105 503.09933704 12.08888773 503.53222084 12.84804249 C508.35120861 21.33178919 508.55001405 30.06136336 508.2590332 39.61523438 C506.48399414 39.7621875 506.48399414 39.7621875 504.6730957 39.91210938 C496.00388401 40.70272094 488.07002305 41.4699962 480.2590332 45.61523438 C479.1659082 46.15148437 478.0727832 46.68773437 476.9465332 47.24023438 C472.35370347 51.29901414 470.17324163 56.8726091 468.2590332 62.61523438 C468.16536561 64.31993372 468.12991109 66.02809094 468.12760544 67.73536015 C468.12376429 68.80108535 468.11992315 69.86681055 468.1159656 70.96483046 C468.11726533 72.72743614 468.11726533 72.72743614 468.11859131 74.52565002 C468.11562019 75.77072466 468.11264906 77.0157993 468.10958791 78.29860348 C468.10239886 81.76141609 468.09972791 85.2241791 468.09899044 88.68699563 C468.09714115 92.41928103 468.0895943 96.15155566 468.08285522 99.88383484 C468.06926456 108.04935599 468.06324566 116.21487223 468.05884457 124.3804028 C468.05608262 129.47966125 468.05184528 134.57891781 468.04734039 139.67817497 C468.03514533 153.79739672 468.02484742 167.91661695 468.0214653 182.03584385 C468.02124574 182.93981191 468.02102617 183.84377997 468.02079995 184.775141 C468.02058167 185.68127619 468.02036339 186.58741138 468.0201385 187.52100521 C468.01969504 189.35718381 468.01924847 191.19336242 468.01879883 193.02954102 C468.0185774 193.94034953 468.01835597 194.85115804 468.01812783 195.78956681 C468.01418206 210.53925666 467.99673586 225.28889704 467.97343931 240.03856779 C467.94971229 255.18313922 467.93726279 270.32768584 467.93609738 285.47227615 C467.93518123 293.97477056 467.92944418 302.47720055 467.91127777 310.9796772 C467.89585836 318.22204724 467.89076706 325.46433297 467.89901587 332.70671631 C467.90291627 336.40010053 467.90202293 340.09331509 467.88795853 343.78667831 C467.87282901 347.79655179 467.88110443 351.80604484 467.89154053 355.81593323 C467.88348412 356.97538863 467.87542772 358.13484404 467.86712718 359.32943445 C467.9222035 368.38907243 469.04655721 377.58532733 475.2590332 384.61523438 C483.24850777 390.28365606 491.67716464 391.84168178 501.2590332 392.24023438 C502.03375977 392.27890625 502.80848633 392.31757812 503.60668945 392.35742188 C505.49046735 392.45044794 507.37471576 392.53386612 509.2590332 392.61523438 C509.00020642 406.56835095 505.52290474 422.35136283 495.2590332 432.61523438 C493.27349829 432.73386527 491.2837172 432.78162223 489.29475403 432.80278015 C487.99785645 432.81860641 486.70095886 432.83443268 485.36476135 432.85073853 C483.91391139 432.86314961 482.46305987 432.87538106 481.01220703 432.88745117 C479.4947173 432.90352846 477.97723075 432.91990819 476.45974731 432.93656921 C462.59343511 433.08134185 448.72621621 433.15633036 434.85930347 433.21548748 C424.60504149 433.26007305 414.35211576 433.3372196 404.09845144 433.45707196 C396.89332614 433.53845808 389.68856726 433.58162187 382.48300189 433.59678966 C378.17734477 433.60696233 373.8733692 433.63430041 369.56821632 433.7031002 C365.51531561 433.76715304 361.46494408 433.78390045 357.41160965 433.76460457 C355.92562125 433.76575772 354.4395311 433.78400149 352.95399666 433.82074738 C348.54846826 433.92408101 344.49431338 433.89118793 340.2590332 432.61523438 C337.25351442 429.63667351 335.75844604 426.53211351 334.2590332 422.61523438 C333.64123443 421.28557346 333.02088657 419.95708717 332.39575195 418.63085938 C331.89765039 417.38153867 331.41449362 416.12615485 330.9465332 414.86523438 C330.69436035 414.19492187 330.4421875 413.52460937 330.18237305 412.83398438 C327.8292567 406.1529549 327.28117523 399.70068194 327.2590332 392.61523438 C328.09563477 392.58945312 328.93223633 392.56367187 329.79418945 392.53710938 C340.99194093 391.9914825 353.88011466 390.9649137 362.7434082 383.39257812 C367.30278946 378.04588103 369.38542226 370.99892596 369.38208103 364.0625267 C369.38407208 363.14887966 369.38606313 362.23523262 369.38811451 361.2938993 C369.38374525 359.79390651 369.38374525 359.79390651 369.37928772 358.26361084 C369.38014214 357.19846953 369.38099657 356.13332821 369.38187689 355.03590989 C369.38352826 351.4552381 369.37801587 347.87461281 369.37255859 344.29394531 C369.37227662 341.73181153 369.37243465 339.16967768 369.3730011 336.60754395 C369.37322906 331.08548131 369.37038666 325.56343374 369.36476326 320.04137421 C369.35663805 312.05739416 369.35403199 304.07341982 369.35277527 296.08943608 C369.35058636 283.13611821 369.34393062 270.18280664 369.33447266 257.22949219 C369.32529438 244.64615917 369.31821558 232.06282787 369.31396484 219.47949219 C369.31370212 218.70392423 369.3134394 217.92835627 369.31316871 217.12928626 C369.31186368 213.23851028 369.31059997 209.34773429 369.30935681 205.45695829 C369.29898921 173.17637908 369.28137525 140.8958076 369.2590332 108.61523438 C368.75647255 109.91682999 368.75647255 109.91682999 368.24375916 111.24472046 C366.97336685 114.53385409 365.70228558 117.82271986 364.43077087 121.11141968 C363.88564346 122.52175775 363.34077318 123.93219524 362.79618835 125.34274292 C359.1964378 134.66592452 355.54689327 143.96636198 351.8215332 153.24023438 C351.53323135 153.95908341 351.2449295 154.67793245 350.94789124 155.4185648 C350.23971208 157.18358368 349.53064592 158.9482466 348.8215332 160.71289062 C344.28524041 172.0200605 339.80698069 183.35032671 335.3215332 194.67773438 C334.87260712 195.81129364 334.42368103 196.94485291 333.96115112 198.11276245 C331.64722697 203.95559204 329.33363333 209.79855241 327.02026367 215.64160156 C320.46015116 232.2104267 313.89453336 248.77707209 307.32919312 265.34382629 C305.01546509 271.18232115 302.70211944 277.02096712 300.3894043 282.85986328 C299.41235584 285.32649832 298.43530505 287.79313243 297.45825195 290.25976562 C296.72946838 292.09978401 296.72946838 292.09978401 295.98596191 293.97697449 C293.55037017 300.12547812 291.11229185 306.27298342 288.66967773 312.41870117 C287.71636507 314.81753567 286.76307711 317.21638 285.80981445 319.61523438 C285.34369751 320.78806473 284.87758057 321.96089508 284.39733887 323.16926575 C281.6848279 330.00145162 278.9919604 336.84092823 276.31816101 343.68835449 C274.68797205 347.85907956 273.04796163 352.02590175 271.40634155 356.19213867 C270.65370141 358.10970441 269.90567498 360.02908879 269.16275024 361.95043945 C263.52033848 376.53714647 257.53314687 391.04624299 242.70043945 398.37304688 C230.09581948 403.8248221 218.80556259 404.91776233 205.2590332 404.61523438 C201.98905576 397.53839146 198.88399631 390.41890237 195.95825195 383.19335938 C195.56497208 382.22749908 195.1716922 381.26163879 194.76649475 380.26651001 C193.92665377 378.20327491 193.08780411 376.13963605 192.24987793 374.07562256 C190.46922563 369.68953423 188.68366113 365.30545095 186.89840698 360.92123413 C185.98973219 358.68958455 185.08130562 356.45783389 184.17312622 354.22598267 C180.13629953 344.30671072 176.07730098 334.39664498 172.0090332 324.49023438 C171.35740538 322.90292018 170.70579405 321.31559922 170.05419922 319.72827148 C168.76493809 316.58780506 167.47545356 313.4474305 166.18579102 310.30712891 C162.91713894 302.3479051 159.65032017 294.38792901 156.3840332 286.42773438 C156.05689331 285.63050964 155.72975342 284.83328491 155.3927002 284.01190186 C149.62372294 269.95218946 143.86851054 255.88686616 138.11608887 241.82037354 C131.16195378 224.81588052 124.19295499 207.81752297 117.21676636 190.82206726 C114.87555438 185.11817117 112.53575491 179.41369695 110.1965332 173.70898438 C109.16971171 171.2051234 108.14287194 168.70126992 107.11602783 166.19741821 C106.48944366 164.66943532 105.86293074 163.14142321 105.23651123 161.6133728 C100.49913687 150.0575928 95.7458191 138.50839891 90.98999023 126.96020508 C90.33512445 125.36994858 89.68026297 123.77969032 89.02540588 122.18943024 C87.43666455 118.33134454 85.84786514 114.47328276 84.2590332 110.61523438 C84.16745828 143.72889605 84.09698465 176.84252485 84.05477189 209.95628428 C84.04976912 213.86652697 84.04459182 217.77676941 84.03930664 221.68701172 C84.03773278 222.85468968 84.03773278 222.85468968 84.03612712 224.04595709 C84.0187265 236.64708469 83.98719071 249.24813922 83.95042202 261.84922349 C83.91300303 274.78111948 83.89079533 287.71297722 83.88267922 300.64492512 C83.87719342 308.62331102 83.85987316 316.60149039 83.82736734 324.57981271 C83.80370456 330.69977974 83.80121579 336.81958964 83.80660248 342.93959618 C83.80550173 345.44861306 83.79754106 347.95763775 83.7822113 350.46660805 C83.76230296 353.89290243 83.76709807 357.31831399 83.77801514 360.74462891 C83.76053809 362.23298107 83.76053809 362.23298107 83.74270797 363.75140095 C83.80363291 370.82824297 85.3009228 376.17761293 89.9699707 381.60351562 C99.30086242 389.02880269 108.61682675 390.83140603 120.1965332 392.24023438 C121.26194336 392.37429688 122.32735352 392.50835938 123.42504883 392.64648438 C126.0358078 392.97429268 128.64708451 393.2970695 131.2590332 393.61523438 C131.27771496 395.20242864 131.29098424 396.78968716 131.30200195 398.37695312 C131.30997803 399.26084717 131.3179541 400.14474121 131.32617188 401.05541992 C131.06356841 411.06777395 126.37666697 422.99365453 120.30514336 430.87996864 C116.15150971 434.40258355 110.95741494 433.7484814 105.75537109 433.69799805 C104.49777481 433.71683548 103.24017853 433.73567291 101.94447327 433.75508118 C98.50593616 433.8042357 95.06920249 433.80259576 91.63040853 433.78863311 C88.75510761 433.781367 85.88015507 433.79846487 83.00491041 433.81531602 C76.21929322 433.85446465 69.43456915 433.85184623 62.64892578 433.82299805 C55.65872569 433.79399416 48.67137283 433.83445661 41.68157774 433.90936106 C35.67015846 433.97137024 29.6596346 433.99055245 23.64791483 433.9755705 C20.06163219 433.96703109 16.47722815 433.97437333 12.891222 434.02278709 C8.88967733 434.07455326 4.89370543 434.03690316 0.89208984 433.9909668 C-0.28891296 434.01794647 -1.46991577 434.04492615 -2.68670654 434.07272339 C-6.04662351 433.9908345 -8.59487395 433.80706872 -11.7409668 432.61523438 C-14.87529952 429.29853544 -16.84166769 425.74108036 -18.7409668 421.61523438 C-19.0684941 420.92700686 -19.3960214 420.23877935 -19.73347378 419.52969646 C-23.42279694 411.00770474 -24.43826192 402.80403462 -23.7409668 393.61523438 C-22.88100098 393.51819214 -22.88100098 393.51819214 -22.00366211 393.41918945 C-1.94723584 391.70146486 -1.94723584 391.70146486 14.07543945 380.75195312 C18.30393596 373.11833071 18.69248481 366.57924918 18.65344238 357.98965454 C18.65953349 356.72805712 18.66562459 355.4664597 18.67190027 354.16663206 C18.68824725 350.68085935 18.68599267 347.1953136 18.6805253 343.70951605 C18.67784862 339.94389438 18.69239882 336.17833234 18.70462036 332.41273499 C18.7256493 325.04168979 18.73021668 317.67072329 18.72843248 310.29965164 C18.72712363 304.30687857 18.73093526 298.31413 18.73835754 292.32136154 C18.74045679 290.5935899 18.74255439 288.86581826 18.74465036 287.13804662 C18.74569389 286.27802409 18.74673742 285.41800156 18.74781257 284.53191774 C18.76670455 268.27571465 18.76566788 252.01955671 18.75884324 235.76334719 C18.75326795 220.90076297 18.77409447 206.03835113 18.80720371 191.17580719 C18.84095877 175.90450321 18.85610682 160.63328177 18.85148668 145.36193979 C18.84924391 136.79241377 18.85445713 128.2230471 18.87937927 119.65355301 C18.90041583 112.3581822 18.90396108 105.06305811 18.88507968 97.76767708 C18.87593641 94.04782791 18.87473489 90.32843847 18.89543533 86.60862541 C18.91765904 82.57032113 18.90089303 78.53309528 18.88049316 74.49478149 C18.89301101 73.32706384 18.90552886 72.15934619 18.91842604 70.95624316 C18.82272014 62.1086986 16.68866985 55.4735756 10.7590332 48.80273438 C0.51017747 41.50430681 -11.62121177 40.52659643 -23.7409668 39.61523438 C-24.35306116 26.62523181 -21.75019561 16.61749573 -14.7409668 5.61523438 C-14.26954758 4.75119995 -13.79812836 3.88716553 -13.31242371 2.99694824 C-9.29349994 -0.72542658 -5.29196666 -0.06786455 0 0 Z " fill="#F04929" transform="translate(227.740966796875,269.384765625)"/>
<path d="M0 0 C0.84433594 0.66257812 1.68867188 1.32515625 2.55859375 2.0078125 C3.48671875 2.70648438 4.41484375 3.40515625 5.37109375 4.125 C6.95562469 5.33697753 8.53923943 6.55015606 10.12109375 7.765625 C15.359884 11.46235199 19.67768501 11.71545265 25.99609375 11.1328125 C26.81418284 33.2666672 26.81418284 33.2666672 21.99609375 40.1328125 C17.6652571 43.75657378 14.02093206 45.24581906 8.43066406 45.29052734 C7.50408997 45.30078949 6.57751587 45.31105164 5.62286377 45.32162476 C4.61681091 45.32892609 3.61075806 45.33622742 2.57421875 45.34375 C0.4101496 45.371889 -1.75391277 45.4005536 -3.91796875 45.4296875 C-7.30240153 45.47038208 -10.68671727 45.50727847 -14.07128906 45.53417969 C-34.49011366 45.71025638 -54.4462733 47.15911678 -74.25390625 52.3828125 C-75.43082031 52.68654785 -76.60773438 52.9902832 -77.8203125 53.30322266 C-87.81716679 55.95129649 -97.46842991 59.13659985 -107.00390625 63.1328125 C-108.16067871 63.61524414 -108.16067871 63.61524414 -109.34082031 64.10742188 C-131.98788896 73.67712722 -153.31965693 85.65786061 -174.26660156 98.46679688 C-177.94798946 100.70741327 -181.65891985 102.89461115 -185.37890625 105.0703125 C-186.34231934 105.63830566 -186.34231934 105.63830566 -187.32519531 106.21777344 C-191.72988213 108.81312762 -196.15593663 111.36892702 -200.58984375 113.9140625 C-212.53490214 120.80192698 -224.00637973 127.52226735 -234.00390625 137.1328125 C-235.39957778 138.43906585 -236.79683428 139.74362694 -238.1953125 141.046875 C-241.15574551 143.81388531 -244.10244611 146.59445474 -247.0390625 149.38671875 C-250.93986759 153.08809806 -254.92498264 156.6784751 -258.94140625 160.25390625 C-261.44986244 162.53907184 -263.82394984 164.93619836 -266.19799805 167.359375 C-267.95636123 169.08612235 -269.77338231 170.68668081 -271.6484375 172.28515625 C-276.3218858 176.35107773 -280.69878766 180.68046684 -285.06640625 185.0703125 C-285.83017578 185.83021484 -286.59394531 186.59011719 -287.38085938 187.37304688 C-292.12947437 192.12978611 -296.63464743 197.02726151 -301.00390625 202.1328125 C-301.87273437 203.12023437 -302.7415625 204.10765625 -303.63671875 205.125 C-334.71633532 241.07602982 -357.43067175 285.36660034 -362.453125 333.03125 C-362.70574023 335.31903617 -362.95859855 337.6067955 -363.21166992 339.89453125 C-363.34060638 341.07853516 -363.46954285 342.26253906 -363.60238647 343.48242188 C-364.28280433 349.66839602 -365.00557278 355.84943926 -365.72265625 362.03125 C-366.0185048 364.59892659 -366.3140756 367.1666352 -366.609375 369.734375 C-367.05619789 373.61855995 -367.50331713 377.50270895 -367.95166016 381.38671875 C-368.39722124 385.24727426 -368.84128064 389.10800037 -369.28515625 392.96875 C-369.43041748 394.22443787 -369.57567871 395.48012573 -369.7253418 396.77386475 C-370.45793976 403.15550874 -371.15350365 409.5381875 -371.78515625 415.93066406 C-371.91176636 417.18964508 -372.03837646 418.4486261 -372.16882324 419.74575806 C-372.40494188 422.11518618 -372.63316947 424.4854205 -372.85168457 426.85653687 C-373.95073845 437.81631782 -376.89188162 446.80781815 -382.30664062 456.34765625 C-387.65126254 466.75925738 -384.95345389 479.50619131 -383.21875 490.609375 C-383.03880997 491.82305756 -382.85886993 493.03674011 -382.67347717 494.28720093 C-382.10568347 498.11224496 -381.5248833 501.93513182 -380.94140625 505.7578125 C-380.35524773 509.6163086 -379.77216322 513.47514777 -379.19862366 517.33554077 C-378.84344038 519.72504635 -378.48095211 522.11348021 -378.1103363 524.50064087 C-377.95009476 525.57631317 -377.78985321 526.65198547 -377.62475586 527.76025391 C-377.48041611 528.70397858 -377.33607635 529.64770325 -377.18736267 530.62002563 C-377.00774669 533.08021032 -377.24927768 534.8019717 -378.00390625 537.1328125 C-378.99390625 536.4728125 -379.98390625 535.8128125 -381.00390625 535.1328125 C-383.54621472 534.71601953 -383.54621472 534.71601953 -386.00390625 535.1328125 C-388.5306308 538.92289932 -388.4473187 540.62478592 -388.00390625 545.1328125 C-387.03466386 548.08245284 -385.86389805 550.63873259 -384.00390625 553.1328125 C-381.63212743 554.54083941 -381.63212743 554.54083941 -379.00390625 554.1328125 C-377.31405914 553.17250291 -375.64391487 552.17595655 -374.00390625 551.1328125 C-368.55575944 561.16381221 -364.16557951 571.51865913 -360.00390625 582.1328125 C-355.83335737 592.74285667 -351.56475407 603.15995135 -346.00390625 613.1328125 C-345.20146484 614.586875 -345.20146484 614.586875 -344.3828125 616.0703125 C-339.98653653 623.49232277 -334.29418308 629.49479425 -328.36523438 635.69042969 C-326.60179351 637.55886739 -324.92321542 639.49268021 -323.25390625 641.4453125 C-320.30925957 644.85452722 -317.15372158 648.00045167 -313.9453125 651.16015625 C-312.18601386 652.94777358 -310.55881089 654.78007376 -308.94140625 656.6953125 C-301.37790237 665.47873636 -292.95084245 673.79762173 -284.08984375 681.265625 C-280.50532701 684.47423737 -277.1753383 687.94228928 -273.79394531 691.36230469 C-270.24313607 694.93798825 -266.60401886 698.33020639 -262.76171875 701.59375 C-260.34586378 703.70896524 -258.12709228 705.99763852 -255.87939453 708.28857422 C-254.06066909 710.07699546 -252.18674186 711.75033104 -250.25390625 713.4140625 C-246.2487016 716.89700906 -242.36285069 720.48926242 -238.50390625 724.1328125 C-237.10685944 725.44801079 -235.70972128 726.76311206 -234.3125 728.078125 C-233.60335449 728.74618164 -232.89420898 729.41423828 -232.16357422 730.10253906 C-230.02266113 732.1151813 -227.8757479 734.12119632 -225.7265625 736.125 C-219.36784203 742.05743753 -213.06444588 748.01016137 -206.9609375 754.20703125 C-204.35402925 756.77231222 -201.61536407 759.16082002 -198.828125 761.52734375 C-197.00390625 763.1328125 -197.00390625 763.1328125 -195.16015625 765.33203125 C-193.09405318 767.39647494 -193.09405318 767.39647494 -190.0859375 767.4453125 C-181.72597678 766.64627205 -173.92104812 765.56448845 -168.00390625 759.1328125 C-167.33426339 766.90066964 -167.33426339 766.90066964 -170.25390625 770.4453125 C-172.43781487 772.57958683 -174.55038905 774.34510018 -177.00390625 776.1328125 C-148.2180426 792.86968073 -121.56384736 801.09056858 -88.31713867 803.37304688 C-67.41643221 804.83228771 -47.0770435 808.25875618 -26.57177734 812.41162109 C-23.33890751 813.06509704 -20.10396086 813.70603611 -16.8671875 814.33984375 C-15.10021181 814.68725286 -13.33328078 815.03488924 -11.56640625 815.3828125 C-10.7990918 815.53355225 -10.03177734 815.68429199 -9.24121094 815.83959961 C-5.75747096 816.53579911 -2.33378346 817.30628615 1.09375 818.2421875 C7.59407758 819.87705303 13.2333962 819.0240565 19.62109375 817.3203125 C26.22558597 815.67120951 32.82044356 814.41298966 39.55859375 813.4453125 C40.44264893 813.31761475 41.3267041 813.18991699 42.23754883 813.05834961 C47.09433914 812.39994591 51.85565701 812.02765874 56.75366211 811.9296875 C62.29836903 811.80320731 66.23527899 811.71164199 70.49609375 807.9453125 C71.07488281 807.3059375 71.65367187 806.6665625 72.25 806.0078125 C74.14536359 803.97252274 76.04884209 802.85353141 78.43359375 801.4453125 C81.2489694 799.43432989 81.9053292 798.51500485 82.71875 795.08984375 C82.9692183 792.0806964 83.07421192 789.15012698 82.99609375 786.1328125 C84.99609375 786.1328125 84.99609375 786.1328125 87.12109375 788.1328125 C87.73984375 788.7928125 88.35859375 789.4528125 88.99609375 790.1328125 C88.68526503 788.38251488 88.37236196 786.63258556 88.05859375 784.8828125 C87.88457031 783.90828125 87.71054687 782.93375 87.53125 781.9296875 C87.09229646 779.63559455 86.59260783 777.38989279 85.99609375 775.1328125 C90.29126334 778.21495906 92.94164073 781.54183538 95.80859375 785.8828125 C96.41864258 786.78580078 96.41864258 786.78580078 97.04101562 787.70703125 C98.03305545 789.17758441 99.01557263 790.65455409 99.99609375 792.1328125 C100.61484375 791.1840625 101.23359375 790.2353125 101.87109375 789.2578125 C103.99609375 786.1328125 103.99609375 786.1328125 105.99609375 784.1328125 C108.12109375 784.5078125 108.12109375 784.5078125 109.99609375 785.1328125 C109.99609375 785.7928125 109.99609375 786.4528125 109.99609375 787.1328125 C110.65609375 787.1328125 111.31609375 787.1328125 111.99609375 787.1328125 C112.32609375 783.1728125 112.65609375 779.2128125 112.99609375 775.1328125 C117.13802328 777.20377727 117.28753182 777.34956823 118.99609375 781.1328125 C119.65609375 781.4628125 120.31609375 781.7928125 120.99609375 782.1328125 C121.26421875 781.0396875 121.53234375 779.9465625 121.80859375 778.8203125 C123.40034907 773.87749335 123.40034907 773.87749335 125.99609375 772.1328125 C128.64605701 771.9156024 131.04685933 771.84929696 133.68359375 771.9453125 C134.38548828 771.95884766 135.08738281 771.97238281 135.81054688 771.98632812 C137.53939204 772.02161068 139.2678414 772.07541667 140.99609375 772.1328125 C141.32609375 775.4328125 141.65609375 778.7328125 141.99609375 782.1328125 C149.14073044 780.89026699 153.60730483 776.79514497 158.99609375 772.1328125 C163.99609375 777.1328125 163.99609375 777.1328125 165.30859375 778.9453125 C168.29886137 781.0495749 171.54565956 780.67362793 174.99609375 780.1328125 C181.91453371 777.78332602 187.93423412 773.81003617 193.97265625 769.78515625 C194.9009726 769.17321915 195.82928894 768.56128204 196.78573608 767.93080139 C198.74258264 766.63880156 200.69727299 765.34353062 202.64990234 764.04516602 C205.58689717 762.09304184 208.53106063 760.1521483 211.4765625 758.21289062 C221.13185688 751.83511657 230.65443162 745.3392957 239.92919922 738.41870117 C243.65129524 735.6444626 247.43741527 732.97344776 251.24609375 730.3203125 C259.7945552 724.32233017 268.19512389 718.13276729 276.58447266 711.91503906 C278.98063036 710.14424019 281.38357619 708.38310078 283.7890625 706.625 C293.1770531 699.75679215 302.42952575 692.74298861 311.58984375 685.57421875 C318.67601685 680.02953869 325.83011699 674.57376828 332.99609375 669.1328125 C333.74858398 668.56127441 334.50107422 667.98973633 335.27636719 667.40087891 C337.51381749 665.70407469 339.75429696 664.01136866 341.99609375 662.3203125 C342.68525879 661.79808105 343.37442383 661.27584961 344.08447266 660.73779297 C348.88008888 657.1328125 348.88008888 657.1328125 349.99609375 657.1328125 C349.99609375 660.7628125 349.99609375 664.3928125 349.99609375 668.1328125 C351.64609375 663.1828125 353.29609375 658.2328125 354.99609375 653.1328125 C355.98609375 653.4628125 356.97609375 653.7928125 357.99609375 654.1328125 C361.36857991 654.80040035 361.36857991 654.80040035 364.99609375 654.1328125 C369.67262159 649.7612756 372.94539998 644.31783446 376.53637695 639.04760742 C383.75742881 628.55071535 392.5378673 620.32284318 402.99609375 613.1328125 C403.99609375 615.1328125 403.99609375 615.1328125 403.30615234 617.39404297 C402.92281738 618.33650879 402.53948242 619.27897461 402.14453125 620.25 C401.4956897 621.85198242 401.4956897 621.85198242 400.83374023 623.48632812 C400.35106689 624.64841797 399.86839355 625.81050781 399.37109375 627.0078125 C398.87617432 628.20857422 398.38125488 629.40933594 397.87133789 630.64648438 C383.26098271 665.84121431 366.11819772 699.71720885 342.99609375 730.1328125 C342.52075195 730.75978027 342.04541016 731.38674805 341.55566406 732.03271484 C335.51947041 739.95073094 329.1534705 747.55895125 322.625 755.07421875 C321.95416382 755.85744507 321.95416382 755.85744507 321.26977539 756.65649414 C320.10330695 758.00854219 318.91031071 759.33758547 317.71484375 760.6640625 C315.69616999 763.56361209 315.32429005 765.58099036 314.93359375 769.0703125 C314.07887935 775.07541798 313.06914454 779.21524052 308.49609375 783.4453125 C303.53207296 786.79602653 298.27969702 786.39906115 292.5078125 786.47460938 C286.94622354 786.68549855 283.63850931 788.05629108 278.99609375 791.1328125 C279.50321408 794.85169489 280.1121759 797.86735489 281.99609375 801.1328125 C281.43921875 800.8440625 280.88234375 800.5553125 280.30859375 800.2578125 C279.54546875 799.8865625 278.78234375 799.5153125 277.99609375 799.1328125 C277.29484375 798.7615625 276.59359375 798.3903125 275.87109375 798.0078125 C266.00664533 795.00558907 257.21283938 798.69189413 247.99609375 802.1328125 C248.5020313 806.05382852 249.23738389 807.77599046 252.24609375 810.3203125 C256.98679568 814.826423 260.53734433 820.15698419 261.30078125 826.7734375 C261.30859375 829.2578125 261.30859375 829.2578125 260.99609375 833.1328125 C255.7617437 828.85987368 251.3250256 824.31700444 246.99609375 819.1328125 C231.31993415 826.53922993 219.45324225 841.47887314 208.54785156 854.58178711 C206.99609375 856.1328125 206.99609375 856.1328125 203.99609375 857.1328125 C201.52341813 861.46420007 201.56664684 866.08500336 201.37109375 870.9453125 C201.33242188 871.73357422 201.29375 872.52183594 201.25390625 873.33398438 C201.16020531 875.2665663 201.07708596 877.19965626 200.99609375 879.1328125 C199.75472656 879.10960937 198.51335938 879.08640625 197.234375 879.0625 C195.59245395 879.04373519 193.95052637 879.02553575 192.30859375 879.0078125 C191.49197266 878.99105469 190.67535156 878.97429688 189.83398438 878.95703125 C183.64652598 878.85886263 183.64652598 878.85886263 177.99609375 881.1328125 C174.54637122 885.23744924 174.46902159 889.31620527 174.30859375 894.4453125 C174.25735352 895.55616211 174.25735352 895.55616211 174.20507812 896.68945312 C174.12315821 898.50339414 174.05793553 900.31807603 173.99609375 902.1328125 C169.7829189 901.62810926 167.89334168 900.51195597 164.99609375 897.4453125 C164.31289063 896.72859375 163.6296875 896.011875 162.92578125 895.2734375 C161.27817045 893.44572349 159.6815127 891.59736164 158.12109375 889.6953125 C156.25445334 887.09406731 156.25445334 887.09406731 153.99609375 886.1328125 C146.79109678 885.61816986 140.33780884 887.21589907 133.37109375 888.9453125 C132.26507812 889.20634766 131.1590625 889.46738281 130.01953125 889.73632812 C124.65459032 891.042098 119.77761404 892.33939801 114.99609375 895.1328125 C115.05796875 897.0509375 115.05796875 897.0509375 115.12109375 899.0078125 C115.19140625 901.1875 115.19140625 901.1875 114.99609375 903.1328125 C112.47792102 905.65098523 110.80452467 905.40634035 107.359375 905.49609375 C101.99667003 904.67174406 97.11493352 901.72133191 92.35351562 899.2265625 C79.51897619 892.55007302 65.37127551 886.89719622 50.6953125 890.734375 C49.79232422 891.05535156 49.79232422 891.05535156 48.87109375 891.3828125 C43.63954844 892.39536966 40.07094185 890.8878287 35.05859375 889.2890625 C30.50208925 887.90664996 25.88476517 887.15853327 21.18359375 886.4453125 C20.40781982 886.32647705 19.6320459 886.2076416 18.83276367 886.08520508 C16.55519754 885.74847923 14.27988064 885.42499869 11.99609375 885.1328125 C11.34456329 885.04915436 10.69303284 884.96549622 10.02175903 884.87930298 C4.69615954 884.23604703 -0.5482471 883.9602912 -5.91015625 883.9296875 C-7.15596466 883.91936996 -7.15596466 883.91936996 -8.42694092 883.90884399 C-11.11930761 883.89168421 -13.81148763 883.88537807 -16.50390625 883.8828125 C-17.88902405 883.88030487 -17.88902405 883.88030487 -19.30212402 883.87774658 C-40.68222825 883.8754408 -61.73465198 885.45698547 -82.87402344 888.75244141 C-86.00390625 889.1328125 -86.00390625 889.1328125 -92.00390625 889.1328125 C-92.33390625 884.8428125 -92.66390625 880.5528125 -93.00390625 876.1328125 C-94.32390625 877.1228125 -95.64390625 878.1128125 -97.00390625 879.1328125 C-102.24923449 880.1788241 -105.29095053 878.04181929 -109.52294922 875.27319336 C-110.78196045 874.43026733 -110.78196045 874.43026733 -112.06640625 873.5703125 C-121.78476736 867.30889389 -131.80635685 861.88640438 -142.11254883 856.68286133 C-143.34977644 856.05811399 -144.58699977 855.43335818 -145.82421875 854.80859375 C-146.73523598 854.34946342 -146.73523598 854.34946342 -147.66465759 853.88105774 C-151.62767621 851.87077398 -155.51009566 849.7498609 -159.37109375 847.55078125 C-169.48928067 841.84200586 -177.32410532 838.01399736 -189.02734375 838.16796875 C-205.10635658 838.02581638 -220.65008365 830.22607453 -232.6328125 819.9609375 C-240.6841657 813.75330439 -249.32386499 812.01520449 -259.28125 812.02734375 C-260.69728068 812.0138684 -262.11329728 811.99884178 -263.52929688 811.98242188 C-265.72095723 811.95982744 -267.91102529 811.94513748 -270.1027832 811.95776367 C-287.85735652 812.03252402 -301.15399156 806.24425132 -314.2421875 794.046875 C-326.94305241 780.77878699 -334.28937284 761.3880815 -337.671875 743.625 C-339.24428069 735.44154057 -340.67851699 728.48498917 -347.50390625 723.1953125 C-349.9358579 722.00139242 -349.9358579 722.00139242 -352.49853516 721.95825195 C-355.00390625 721.1328125 -355.00390625 721.1328125 -356.43505859 718.46948242 C-356.8161377 717.27943604 -357.1972168 716.08938965 -357.58984375 714.86328125 C-357.91696854 713.88118935 -357.91696854 713.88118935 -358.2507019 712.8792572 C-358.72545921 711.45164222 -359.19153679 710.02111874 -359.65002441 708.5881958 C-360.9059553 704.68042291 -362.24050388 700.79975403 -363.57421875 696.91796875 C-363.85140747 696.10841736 -364.12859619 695.29886597 -364.41418457 694.46478271 C-367.3678593 685.92585838 -370.74761698 677.58259359 -374.25390625 669.2578125 C-374.56608093 668.51560455 -374.87825562 667.77339661 -375.19989014 667.00869751 C-381.90670071 651.1093639 -388.94323127 635.35465225 -396 619.60839844 C-422.14843111 561.24068038 -422.14843111 561.24068038 -422.1015625 550.1796875 C-422.10014755 549.51946594 -422.0987326 548.85924438 -422.09727478 548.17901611 C-422.0916987 546.08023456 -422.07915072 543.98156155 -422.06640625 541.8828125 C-422.06138815 540.45573071 -422.05682579 539.02864725 -422.05273438 537.6015625 C-422.04173713 534.11194418 -422.02448905 530.62238894 -422.00390625 527.1328125 C-418.70390625 527.1328125 -415.40390625 527.1328125 -412.00390625 527.1328125 C-408.20906088 492.25637648 -429.98295897 443.66423341 -449.00390625 415.1328125 C-449.24355602 406.87060133 -447.6027422 398.8276162 -445.8828125 390.79296875 C-444.6738044 384.74247613 -443.93882819 378.62175515 -443.12890625 372.5078125 C-435.01094112 312.3306744 -435.01094112 312.3306744 -423.00390625 287.1328125 C-422.48038574 286.02631348 -422.48038574 286.02631348 -421.94628906 284.89746094 C-416.49607151 273.5678385 -410.29252184 263.58414843 -402.00390625 254.1328125 C-401.52163574 253.57899902 -401.03936523 253.02518555 -400.54248047 252.45458984 C-393.97250509 244.97422527 -386.94966178 238.12394902 -379.52929688 231.49658203 C-352.83786904 208.20351343 -352.83786904 208.20351343 -335.92944336 177.79394531 C-335.62143799 176.92350586 -335.31343262 176.05306641 -334.99609375 175.15625 C-334.7316748 174.38200684 -334.46725586 173.60776367 -334.19482422 172.81005859 C-329.97349617 163.3202916 -323.02392057 156.74412882 -315.765625 149.56640625 C-314.55823709 148.36208272 -313.351445 147.15716158 -312.1452179 145.95167542 C-309.62389391 143.43493531 -307.0977682 140.92315847 -304.56762695 138.4152832 C-301.3433034 135.21920932 -298.12768717 132.01455494 -294.91522503 128.80656338 C-291.82683135 125.72335542 -288.73378873 122.64482733 -285.640625 119.56640625 C-285.06050848 118.98817045 -284.48039196 118.40993465 -283.88269615 117.81417656 C-277.7579236 111.71504256 -271.59174104 105.73654287 -265.00390625 100.1328125 C-263.41751336 98.67780798 -261.83370869 97.21997008 -260.25390625 95.7578125 C-243.89235155 80.99436315 -243.89235155 80.99436315 -235.99145508 81.01928711 C-235.19085159 81.01936264 -234.39024811 81.01943817 -233.56538391 81.01951599 C-232.27618294 81.02725792 -232.27618294 81.02725792 -230.9609375 81.03515625 C-230.07734055 81.0365712 -229.19374359 81.03798615 -228.28337097 81.03944397 C-225.46101497 81.04504181 -222.63873828 81.05759389 -219.81640625 81.0703125 C-217.90299594 81.07532778 -215.98958438 81.07989064 -214.07617188 81.08398438 C-209.38538611 81.09501053 -204.69465962 81.11227367 -200.00390625 81.1328125 C-199.75721191 80.47547119 -199.51051758 79.81812988 -199.25634766 79.14086914 C-193.48276612 64.16830416 -183.51251965 53.35098882 -169.05859375 46.32421875 C-160.91282882 43.1471621 -154.12322471 42.95421559 -145.51367188 43.47460938 C-136.59804519 43.74228408 -131.09466909 40.19019113 -124.6171875 34.3203125 C-123.17450631 32.93387364 -121.7409339 31.53789709 -120.31640625 30.1328125 C-106.03419089 16.27254263 -106.03419089 16.27254263 -101.00390625 16.1328125 C-99.00390625 18.1328125 -99.00390625 18.1328125 -98.80859375 22.046875 C-98.82190249 23.61730601 -98.84577023 25.18767471 -98.87890625 26.7578125 C-98.88792969 27.55960938 -98.89695312 28.36140625 -98.90625 29.1875 C-98.92984402 31.16939773 -98.9657156 33.15114231 -99.00390625 35.1328125 C-98.09511719 34.50375 -97.18632812 33.8746875 -96.25 33.2265625 C-94.98073799 32.36158395 -93.71119066 31.49702398 -92.44140625 30.6328125 C-91.85166016 30.22289062 -91.26191406 29.81296875 -90.65429688 29.390625 C-79.09848297 21.56822789 -66.55727292 15.81591235 -53.62890625 10.6953125 C-52.94601532 10.42299805 -52.26312439 10.15068359 -51.55953979 9.87011719 C-48.05982891 8.47524641 -44.55612312 7.09118613 -41.04736328 5.71923828 C-38.44110635 4.6999592 -35.84064875 3.66809793 -33.24560547 2.62060547 C-29.86316046 1.26196453 -26.46842093 -0.05846224 -23.06640625 -1.3671875 C-22.07398926 -1.77122803 -21.08157227 -2.17526855 -20.05908203 -2.59155273 C-11.96444818 -5.61186561 -7.22170434 -4.48891375 0 0 Z " fill="#F04929" transform="translate(475.00390625,35.8671875)"/>
<path d="M0 0 C38.44856352 -1.28800559 71.92968917 6.32142759 106.74755859 23.0814209 C108.04948292 23.68723149 109.35156566 24.29270174 110.65380859 24.89782715 C128.52912389 33.36037479 144.83696687 44.12108251 159.74755859 57.0814209 C160.38725586 57.62903076 161.02695312 58.17664063 161.68603516 58.74084473 C166.6056596 62.98345113 171.27750001 67.42828916 175.87255859 72.0189209 C176.54931641 72.68343262 177.22607422 73.34794434 177.92333984 74.03259277 C185.50587827 81.59313158 191.08193674 89.99270519 196.68505859 99.0814209 C198.01699261 101.22731459 199.34902666 103.37314619 200.68115234 105.5189209 C201.35645996 106.60946777 202.03176758 107.70001465 202.72753906 108.8236084 C205.88662517 113.91846519 209.06762834 118.99955842 212.24755859 124.0814209 C213.49767578 126.08134765 214.74767549 128.08134784 215.99755859 130.0814209 C216.61630859 131.0714209 217.23505859 132.0614209 217.87255859 133.0814209 C238.49755859 166.0814209 238.49755859 166.0814209 240.37280273 169.08190918 C241.62187188 171.08035474 242.87105793 173.07872724 244.12036133 175.07702637 C247.26056995 180.10021425 250.39868777 185.1246861 253.53271484 190.1517334 C254.47002441 191.6525647 254.47002441 191.6525647 255.42626953 193.18371582 C256.67753668 195.19148391 257.92432116 197.20205294 259.16650391 199.2154541 C262.22438759 204.15123338 265.35160779 208.9949524 268.69677734 213.74157715 C269.33478271 214.67147461 269.97278809 215.60137207 270.63012695 216.55944824 C271.81147221 218.27347225 273.02142581 219.96842115 274.26928711 221.63464355 C279.79146984 229.75737484 280.38107827 238.59664514 281.41845703 248.11923218 C281.75306656 251.13099721 282.12859647 254.13499447 282.51708984 257.14025879 C283.19281918 262.36831748 283.84330091 267.59901325 284.48242188 272.83166504 C284.87527228 276.04109055 285.27417814 279.24972806 285.67333984 282.45837402 C287.78072105 299.53314312 288.89869135 316.25832205 288.81005859 333.4564209 C288.80502827 335.17516958 288.8004681 336.8939197 288.79638672 338.6126709 C288.78551469 342.76895741 288.76833664 346.9251726 288.74755859 351.0814209 C293.15657369 349.49428389 294.78515669 348.13338307 297.31005859 344.1439209 C299.47606074 340.74734941 301.29233545 338.22238738 304.74755859 336.0814209 C305.40755859 336.0814209 306.06755859 336.0814209 306.74755859 336.0814209 C306.57740234 336.6176709 306.40724609 337.1539209 306.23193359 337.7064209 C304.00709794 344.90163408 302.16437143 352.17670084 300.39379883 359.49450684 C299.8907316 361.50829615 299.36152948 363.51556337 298.82202148 365.51989746 C296.29485218 375.01849006 294.61621001 384.47228208 293.36450195 394.21765137 C293.0600573 396.58143094 292.73984445 398.94268155 292.41748047 401.30407715 C291.09192081 411.21702518 290.2293688 421.09263096 289.74755859 431.0814209 C289.08755859 430.7514209 288.42755859 430.4214209 287.74755859 430.0814209 C286.17035563 423.18994809 286.55654381 415.98599684 286.56005859 408.9564209 C286.55897095 407.9649707 286.55897095 407.9649707 286.55786133 406.95349121 C286.55910842 396.63252567 287.1121528 386.46168921 288.31005859 376.2064209 C288.70547607 372.81448036 288.83522469 369.50039882 288.74755859 366.0814209 C288.19068359 366.7414209 287.63380859 367.4014209 287.06005859 368.0814209 C284.74755859 370.0814209 284.74755859 370.0814209 282.18505859 370.5814209 C279.74755859 370.0814209 279.74755859 370.0814209 278.11865234 368.42907715 C276.39921081 365.48496215 276.47969173 363.41009658 276.37255859 360.0189209 C275.69199626 354.8832488 274.55108923 352.29205364 270.52124023 348.95324707 C269.36754862 348.07048945 268.21173493 347.1904992 267.05395508 346.31311035 C253.98445532 336.33963067 245.69254077 320.96128007 238.18505859 306.6439209 C237.64619019 305.65029541 237.64619019 305.65029541 237.09643555 304.63659668 C234.91277681 300.33470718 234.4370466 297.72063335 235.74755859 293.0814209 C239.00520182 281.39223049 239.72899889 268.74122609 234.27490234 257.6517334 C230.3189748 250.99444357 225.76011785 246.98739947 219.31005859 242.7689209 C204.99553152 233.17859327 201.13464327 218.72948857 195.74755859 203.0814209 C195.45316895 202.26834473 195.1587793 201.45526855 194.85546875 200.61755371 C192.06678695 192.74581185 191.59154713 185.38236152 191.68505859 177.0814209 C191.68957031 176.30669434 191.69408203 175.53196777 191.69873047 174.73376465 C191.71036102 172.84961566 191.72828953 170.96550725 191.74755859 169.0814209 C190.55517578 169.64731934 189.36279297 170.21321777 188.13427734 170.79626465 C186.56791329 171.53723926 185.00150471 172.27811978 183.43505859 173.0189209 C182.649375 173.39210449 181.86369141 173.76528809 181.05419922 174.14978027 C180.296875 174.50749512 179.53955078 174.86520996 178.75927734 175.23376465 C177.71453247 175.7286438 177.71453247 175.7286438 176.64868164 176.23352051 C172.64389335 178.01965506 169.07093653 179.00043839 164.74755859 178.0814209 C160.81003058 176.16348557 157.29888606 173.62589286 153.74755859 171.0814209 C153.09319824 170.61478027 152.43883789 170.14813965 151.76464844 169.6673584 C147.97204284 166.95524988 144.19573068 164.22145645 140.42724609 161.47595215 C136.0639049 158.30122042 131.66327365 155.18272649 127.24755859 152.0814209 C121.38243028 147.95786411 115.55340312 143.78802086 109.74755859 139.5814209 C101.13075038 133.34274474 92.45818689 127.18828049 83.74755859 121.0814209 C82.85343262 120.45300293 81.95930664 119.82458496 81.03808594 119.17712402 C68.76392646 110.55621174 56.43205001 102.08727124 43.74755859 94.0814209 C42.3846167 93.21734619 42.3846167 93.21734619 40.99414062 92.33581543 C34.90092762 88.47694797 28.77918318 84.66845194 22.63671875 80.8885498 C19.96815121 79.21939847 17.34588629 77.4965568 14.72802734 75.74938965 C4.71466311 69.24577899 -3.16508155 67.01777763 -15.04541016 66.4407959 C-34.88831324 65.39157146 -53.42370854 56.75305634 -66.89697266 42.31970215 C-71.87718416 36.62188092 -72.71006375 32.45630781 -72.56494141 24.99157715 C-72.13913267 21.02623331 -70.95228957 18.99441497 -68.25244141 16.0814209 C-67.42744141 15.1739209 -66.60244141 14.2664209 -65.75244141 13.3314209 C-57.98665907 7.30858223 -44.47566755 8.36069315 -35.25244141 9.0814209 C-32.29696711 9.81289022 -29.99887844 10.73622725 -27.25244141 12.0814209 C-27.06294922 11.17263184 -27.06294922 11.17263184 -26.86962891 10.2454834 C-25.6609539 6.00747105 -22.82746475 3.46476979 -19.25244141 1.0814209 C-16.70296004 0.7789463 -14.24816203 0.58478429 -11.68994141 0.4798584 C-10.9376123 0.44315033 -10.1852832 0.40644226 -9.41015625 0.36862183 C-6.27413754 0.22427044 -3.13725842 0.11340512 0 0 Z " fill="#F04929" transform="translate(607.25244140625,59.9185791015625)"/>
<path d="M0 0 C0.33 0 0.66 0 1 0 C1 86.46 1 172.92 1 262 C0.67 262 0.34 262 0 262 C-0.00423194 260.69371737 -0.00846388 259.38743475 -0.01282406 258.0415678 C-0.11343424 227.05399125 -0.21913095 196.06643671 -0.33111694 165.07889934 C-0.34488701 161.26736206 -0.35861404 157.45582463 -0.37231445 153.64428711 C-0.37504276 152.88545789 -0.37777106 152.12662867 -0.38058204 151.34480462 C-0.42469317 139.04750643 -0.46531436 126.75019904 -0.50465261 114.45288476 C-0.54507526 101.84078777 -0.58923253 89.22870788 -0.63687855 76.6166361 C-0.66617561 68.83026685 -0.69253703 61.04389891 -0.71517897 53.25750742 C-0.73283341 47.2934174 -0.75567626 41.32935446 -0.78049088 35.36528969 C-0.78986932 32.91385617 -0.79754173 30.46241548 -0.80341911 28.01097107 C-0.81166679 24.67513986 -0.82593978 21.3393883 -0.84178162 18.00358582 C-0.84275972 17.02402347 -0.84373783 16.04446113 -0.84474558 15.03521508 C-0.85295724 13.69908165 -0.85295724 13.69908165 -0.8613348 12.33595562 C-0.86399284 11.56550307 -0.86665089 10.79505052 -0.86938947 10.00125092 C-0.92862478 7.79117135 -0.92862478 7.79117135 -2 5 C-1.0625 2.3125 -1.0625 2.3125 0 0 Z " fill="#FCE1DE" transform="translate(597,376)"/>
<path d="M0 0 C3.4437897 0.93281527 4.75613497 1.6268043 6.73828125 4.66015625 C7.25777344 5.78292969 7.77726562 6.90570312 8.3125 8.0625 C8.59883301 8.66868164 8.88516602 9.27486328 9.18017578 9.89941406 C9.80029138 11.21686845 10.41295496 12.53785011 11.01904297 13.86181641 C12.05903115 16.12866969 13.12261947 18.38330915 14.19140625 20.63671875 C15.60208615 23.6133627 17.00522414 26.59326564 18.3984375 29.578125 C19.24818451 31.39368203 20.10352721 33.20705442 21 35 C15.33487519 33.41903494 11.5928019 31.41869918 8.3125 26.4375 C7.15324203 23.40134818 6.61413354 20.93161175 6.125 17.75 C5.30432722 12.57834652 3.54869555 8.55761479 1.0234375 3.99609375 C0 2 0 2 0 0 Z " fill="#FDE4E0" transform="translate(96,609)"/>
<path d="M0 0 C0.99 0 1.98 0 3 0 C3.86762314 2.24561282 4.7192103 4.49526255 5.5625 6.75 C5.80935547 7.38421875 6.05621094 8.0184375 6.31054688 8.671875 C7.58197079 12.11009179 8.46686355 14.52168882 7 18 C5.29636825 16.09576486 3.61288422 14.17882253 1.9375 12.25 C1.45216797 11.71117187 0.96683594 11.17234375 0.46679688 10.6171875 C-3.01657801 6.56560253 -3.01657801 6.56560253 -2.93359375 3.734375 C-2 2 -2 2 0 0 Z " fill="#FDE3E0" transform="translate(85,610)"/>
</svg>
